<svg xmlns="http://www.w3.org/2000/svg" width="21" height="21" viewBox="0 0 21 21">
    <g fill="none" fill-rule="evenodd">
        <g fill="#BABABA" fill-rule="nonzero">
            <path d="M69.5 298c-5.803 0-10.5 4.696-10.5 10.5 0 5.803 4.696 10.5 10.5 10.5 5.803 0 10.5-4.696 10.5-10.5 0-5.803-4.696-10.5-10.5-10.5zm.733 15.09c0 .405-.328.733-.733.733-.405 0-.733-.328-.733-.732v-6.007c0-.405.328-.733.733-.733.405 0 .733.328.733.733v6.007zm0-8.302c0 .405-.328.733-.733.733-.405 0-.733-.328-.733-.733v-.879c0-.404.328-.732.733-.732.405 0 .733.328.733.732v.88z" transform="translate(-59.000000, -298.000000)"/>
        </g>
    </g>
</svg>
