<svg xmlns="http://www.w3.org/2000/svg" xmlns:xlink="http://www.w3.org/1999/xlink" width="90" height="90" viewBox="0 0 90 90">
    <defs>
        <linearGradient id="nb7y7g3xvb" x1="26.053%" x2="78.069%" y1="2.179%" y2="114.715%">
            <stop offset="0%" stop-color="#ED5050"/>
            <stop offset="100%" stop-color="#FFAC50"/>
        </linearGradient>
        <path id="3bpr44tcaa" d="M45 0C20.153 0 .007 20.141 0 44.99-.006 69.826 20.166 90 45.002 90 69.854 90 90 69.853 90 45v-.163c-.029-8.029-7.926-13.669-15.55-11.15l-.487.16c-4.692 1.55-7.786 5.977-7.732 10.919l.001.234c0 11.74-9.53 21.254-21.271 21.232-11.707-.022-21.192-9.52-21.192-21.231 0-11.727 9.506-21.232 21.232-21.232h.133c6.54.041 11.873-5.219 11.873-11.758v-.047C57.007 5.388 51.701.018 45.125 0h-.124z"/>
    </defs>
    <g fill="none" fill-rule="evenodd">
        <g>
            <g>
                <g transform="translate(-150.000000, -123.000000) translate(150.000000, 123.000000)">
                    <mask id="hns7i6ybuc" fill="#fff">
                        <use xlink:href="#3bpr44tcaa"/>
                    </mask>
                    <path fill="url(#nb7y7g3xvb)" d="M45 0C20.153 0 .007 20.141 0 44.99-.006 69.826 20.166 90 45.002 90 69.854 90 90 69.853 90 45v-.163c-.029-8.029-7.926-13.669-15.55-11.15l-.487.16c-4.692 1.55-7.786 5.977-7.732 10.919l.001.234c0 11.74-9.53 21.254-21.271 21.232-11.707-.022-21.192-9.52-21.192-21.231 0-11.727 9.506-21.232 21.232-21.232h.133c6.54.041 11.873-5.219 11.873-11.758v-.047C57.007 5.388 51.701.018 45.125 0h-.124z" mask="url(#hns7i6ybuc)"/>
                </g>
                <path fill="#F48150" d="M80.085 18.686c0 4.423-3.586 8.009-8.009 8.009s-8.008-3.586-8.008-8.009 3.585-8.008 8.008-8.008c4.423 0 8.009 3.585 8.009 8.008" transform="translate(-150.000000, -123.000000) translate(150.000000, 123.000000)"/>
            </g>
        </g>
    </g>
</svg>
