<svg xmlns="http://www.w3.org/2000/svg" width="21" height="21" viewBox="0 0 21 21">
    <g fill="none" fill-rule="evenodd">
        <g fill="#BABABA" fill-rule="nonzero">
            <path d="M78.864 354.06l-13.668 5.466h-3.71c-1.37 0-2.486 1.117-2.486 2.487v3.04c0 1.302 1.022 2.21 2.487 2.21h.94l1.003 7.025c.058.41.408.712.82.712h3.316c.236 0 .46-.1.619-.276.157-.176.232-.41.205-.646l-.652-5.798 11.125 4.45c.1.04.204.06.308.06.162 0 .326-.05.465-.143.228-.155.364-.411.364-.686v-17.132c0-.275-.136-.532-.364-.686-.229-.155-.518-.186-.772-.083z" transform="translate(-59.000000, -354.000000)"/>
        </g>
    </g>
</svg>
