<svg xmlns="http://www.w3.org/2000/svg" width="25" height="25" viewBox="0 0 25 25">
    <g fill="none" fill-rule="evenodd">
        <g fill="#009D06" fill-rule="nonzero" stroke="#009D06" stroke-width="3">
            <path d="M329.5 192c-5.799 0-10.5 4.701-10.5 10.5s4.701 10.5 10.5 10.5 10.5-4.701 10.5-10.5-4.701-10.5-10.5-10.5zm6.033 16.515c-1.61 1.615-3.752 2.504-6.033 2.504-2.28 0-4.423-.89-6.033-2.504-1.603-1.608-2.486-3.744-2.486-6.015 0-2.27.883-4.407 2.486-6.015 1.61-1.615 3.753-2.504 6.033-2.504 2.28 0 4.423.89 6.033 2.504 1.603 1.608 2.486 3.744 2.486 6.015 0 2.27-.883 4.407-2.486 6.015z" transform="translate(-317.000000, -190.000000)"/>
        </g>
    </g>
</svg>
