<svg xmlns="http://www.w3.org/2000/svg" width="17" height="17" viewBox="0 0 17 17">
    <g fill="none" fill-rule="evenodd">
        <g fill="#000" fill-rule="nonzero">
            <g>
                <path d="M16.792 15.79l-4.834-4.833c.936-1.157 1.5-2.627 1.5-4.228C13.458 3.02 10.44 0 6.73 0S0 3.019 0 6.73c0 3.71 3.019 6.728 6.73 6.728 1.6 0 3.07-.563 4.226-1.5l4.835 4.834c.138.139.32.208.5.208.182 0 .363-.07.501-.208.277-.277.277-.724 0-1.001zM6.73 12.043c-2.93 0-5.312-2.383-5.312-5.313 0-2.93 2.382-5.312 5.312-5.312s5.313 2.382 5.313 5.312-2.383 5.313-5.313 5.313z" transform="translate(-50.000000, -236.000000) translate(50.000000, 236.000000)"/>
            </g>
        </g>
    </g>
</svg>
