<svg xmlns="http://www.w3.org/2000/svg" width="30" height="31" viewBox="0 0 30 31">
    <g fill="none" fill-rule="evenodd">
        <g>
            <g>
                <path fill="#F57B51" d="M22.027 8.267H7.973C7.438 8.267 7 7.812 7 7.233c0-.568.438-1.033.973-1.033h14.054c.535 0 .973.465.973 1.033 0 .579-.438 1.034-.973 1.034m0 8.266H7.973c-.535 0-.973-.465-.973-1.033 0-.568.438-1.033.973-1.033h14.054c.535 0 .973.465.973 1.033 0 .568-.438 1.033-.973 1.033m0 8.267H7.973c-.535 0-.973-.455-.973-1.033 0-.569.438-1.034.973-1.034h14.054c.535 0 .973.465.973 1.034 0 .578-.438 1.033-.973 1.033M25.667 0H4.333C3.6 0 3 .624 3 1.387v28.226C3 30.376 3.6 31 4.333 31h21.334c.734 0 1.333-.624 1.333-1.387V1.387C27 .624 26.4 0 25.667 0" transform="translate(-180.000000, -769.000000) translate(180.000000, 769.000000)"/>
                <path d="M0 0H30V31H0z" transform="translate(-180.000000, -769.000000) translate(180.000000, 769.000000)"/>
            </g>
        </g>
    </g>
</svg>
