<svg xmlns="http://www.w3.org/2000/svg" width="30" height="31" viewBox="0 0 30 31">
    <g fill="none" fill-rule="evenodd">
        <g>
            <g>
                <path fill="#F57B51" d="M14.356 20.884c-2.75 0-4.99-2.346-4.99-5.219 0-2.883 2.24-5.228 4.99-5.228 2.76 0 5 2.345 5 5.228 0 2.873-2.24 5.219-5 5.219m14.17-1.984l-2.73-2.233c.03-.34.06-.743.06-1.167 0-.424-.03-.826-.06-1.178l2.74-2.221c.51-.424.65-1.168.32-1.779l-2.85-5.134c-.3-.58-.97-.87-1.65-.61l-3.23 1.343c-.62-.465-1.27-.857-1.94-1.167l-.49-3.566C18.616.506 18.046 0 17.376 0h-5.71c-.671 0-1.241.506-1.32 1.178l-.49 3.576c-.65.31-1.29.69-1.94 1.178l-3.24-1.355c-.61-.248-1.33.021-1.64.6L.185 10.313c-.34.589-.2 1.364.32 1.788l2.74 2.232c-.04.434-.06.806-.06 1.167 0 .352.02.734.06 1.167L.505 18.9c-.51.413-.65 1.168-.32 1.778l2.84 5.124c.31.58.97.88 1.65.62l3.24-1.353c.62.464 1.27.857 1.941 1.177l.49 3.567c.079.67.649 1.187 1.32 1.187h5.71c.67 0 1.24-.516 1.32-1.177l.49-3.577c.65-.309 1.29-.69 1.94-1.177l3.24 1.354c.16.063.32.104.49.104.48 0 .92-.28 1.15-.704l2.86-5.156c.32-.599.18-1.354-.34-1.767" transform="translate(-302.000000, -768.000000) translate(302.000000, 768.000000)"/>
                <path d="M0 0H30V31H0z" transform="translate(-302.000000, -768.000000) translate(302.000000, 768.000000)"/>
            </g>
        </g>
    </g>
</svg>
