<svg xmlns="http://www.w3.org/2000/svg" width="32" height="32" viewBox="0 0 32 32">
    <g fill="none" fill-rule="evenodd">
        <g>
            <g>
                <path stroke="#000" stroke-linecap="round" stroke-linejoin="round" stroke-width="2" d="M29.516 11.887v17.298c0 .45-.361.815-.807.815h-9.081c-.447 0-.808-.365-.808-.815v-7.667c0-2.13-1.71-3.856-3.82-3.856s-3.82 1.726-3.82 3.856v7.667c0 .45-.361.815-.807.815H1.29c-.446 0-.807-.365-.807-.815V11.882c0-.246.11-.48.3-.634L14.344.18c.293-.24.712-.242 1.009-.005L29.21 11.248c.194.155.306.39.306.639z" transform="translate(-57.000000, -769.000000) translate(58.000000, 770.000000)"/>
                <path d="M0 0H30V30H0z" transform="translate(-57.000000, -769.000000) translate(58.000000, 770.000000)"/>
            </g>
        </g>
    </g>
</svg>
