<svg xmlns="http://www.w3.org/2000/svg" width="32" height="32" viewBox="0 0 32 32">
    <g fill="none" fill-rule="evenodd">
        <g>
            <g>
                <path stroke="#000" stroke-width="2" d="M14.842 20.21c-2.751 0-4.993-2.267-4.993-5.054 0-2.783 2.242-5.05 4.993-5.05 2.755 0 4.997 2.267 4.997 5.05 0 2.787-2.242 5.055-4.997 5.055zm14.17-1.924l-2.738-2.155c.034-.334.065-.72.065-1.133 0-.411-.031-.801-.065-1.133l2.741-2.157c.51-.406.65-1.124.326-1.721L26.49 5.024c-.304-.56-.972-.848-1.649-.597l-3.233 1.306c-.618-.449-1.267-.83-1.941-1.133l-.492-3.452C19.094.495 18.528 0 17.857 0h-5.713c-.67 0-1.237.495-1.317 1.14l-.492 3.463c-.649.294-1.289.669-1.938 1.133l-3.242-1.31c-.606-.234-1.332.029-1.637.586L.666 9.98c-.335.573-.197 1.316.323 1.73L3.73 13.87c-.043.42-.064.786-.064 1.13 0 .343.021.711.064 1.132L.986 18.29c-.507.406-.646 1.127-.323 1.724l2.849 4.96c.304.56.966.848 1.649.597l3.233-1.306c.621.449 1.27.83 1.941 1.133l.492 3.451c.08.657.646 1.152 1.317 1.152h5.716c.668 0 1.234-.495 1.314-1.14l.495-3.463c.65-.297 1.289-.669 1.935-1.133l3.242 1.31c.157.058.32.092.49.092.48 0 .926-.266 1.147-.678l2.864-4.987c.317-.585.179-1.306-.335-1.715z" transform="translate(-301.000000, -768.000000) translate(302.000000, 769.000000)"/>
                <path d="M0 0H30V30H0z" transform="translate(-301.000000, -768.000000) translate(302.000000, 769.000000)"/>
            </g>
        </g>
    </g>
</svg>
